# xmcd CD database file
#
# Track frame offsets:
#	150
#	9462
#	29160
#	42289
#	48311
#	57291
#	82891
#	94820
#	110302
#	120297
#	130162
#	145633
#
# Disc length: 2100 seconds
#
# Revision: 0
# Processed by: cddbd v1.5.2PL0 Copyright (c) Steve Scherf et al.
# Submitted via: CDex 1.50
#
DISCID=9308320c
DTITLE=Elise Dabrowski   - AUROCH_Solo pour voix et contrebasse
DYEAR=2015
DGENRE=Jazz
TTITLE0=Animalia
TTITLE1=Chordata
TTITLE2=Elise Dabrowski   - Vertebrata
TTITLE3=Mammalia
TTITLE4=Theria
TTITLE5=Eutheria
TTITLE6=Bovidae
TTITLE7=Bovinae
TTITLE8=Bos
TTITLE9=Taurus
TTITLE10=Auroch
TTITLE11=Heck
EXTD=YEAR: 2015
EXTT0=
EXTT1=
EXTT2=
EXTT3=
EXTT4=
EXTT5=
EXTT6=
EXTT7=
EXTT8=
EXTT9=
EXTT10=
EXTT11=
PLAYORDER=
